<?xml version="1.0" encoding="UTF-8"?>
<svg xmlns="http://www.w3.org/2000/svg" xmlns:xlink="http://www.w3.org/1999/xlink" width="390" height="244" viewBox="0 0 390 244">
  <defs>
    <clipPath id="clip-path">
      <rect id="Rectangle_1345" data-name="Rectangle 1345" width="390" height="244" transform="translate(0 462)" fill="#fff"></rect>
    </clipPath>
    <clipPath id="clip-path-2">
      <rect id="Rectangle_1233" data-name="Rectangle 1233" width="303.46" height="226.665" fill="none"></rect>
    </clipPath>
  </defs>
  <g id="Safeguarding" transform="translate(17147.5 18544.307)">
    <g id="Mask_Group_3398" data-name="Mask Group 3398" transform="translate(-17147.5 -19006.307)" clip-path="url(#clip-path)">
      <path id="Subtraction_35" data-name="Subtraction 35" d="M23172,19140.705l-125.719-130.184a21.982,21.982,0,0,1,.545-31.107l29.492-28.48,95.682,99.082v90.689Z" transform="translate(-22782 -18464.352)" fill="#fccd7f"></path>
      <path id="Subtraction_36" data-name="Subtraction 36" d="M23106.822,19030.068l0,0h-87.582l-70.953-73.477a21.987,21.987,0,0,1,.541-31.107l29.494-28.48,128.5,133.064Z" transform="translate(-22766.359 -18315.535)" fill="#ef8957"></path>
      <path id="Subtraction_37" data-name="Subtraction 37" d="M22969.82,19038.295l0,0h-87.578l-78.9-81.707a21.979,21.979,0,0,1,.541-31.105l29.5-28.479,136.443,141.291Z" transform="translate(-22764.82 -18327.295)" fill="#ed7c7c"></path>
      <g id="Group_3633" data-name="Group 3633" transform="translate(77.256 479.336)">
        <g id="Group_3414" data-name="Group 3414" transform="translate(0 1)" clip-path="url(#clip-path-2)">
          <path id="Path_1696" data-name="Path 1696" d="M257.765,103.381c0-1.986-.1-3.946-.258-5.891-19.967,2.769-40.363,12.81-45.413,11.967-7.94-1.323-2.647-20.291-1.324-29.554s-3.088-11.909-3.088-11.909a216.826,216.826,0,0,1-22.055-11.468c-13.675-7.941-29.113-15.881-27.348.44s30.436,29.556,30.436,29.556-10.145,20.29-17.644,40.58c-7.1,19.22,23.784,38.437,39.061,44.536a72.724,72.724,0,0,0,47.633-68.258" transform="translate(1.326 0.398)"></path>
          <path id="Path_1697" data-name="Path 1697" d="M104.385,17.011a58.079,58.079,0,1,1-82.136,0,58.078,58.078,0,0,1,82.136,0" transform="translate(0.044 0)" fill="#c10230"></path>
          <path id="Path_1698" data-name="Path 1698" d="M121.209,115.97l-29.389-7.875-29.39-7.874L83.944,78.705,105.459,57.19l7.875,29.389Z" transform="translate(0.523 0.479)" fill="#c10230"></path>
          <path id="Path_1699" data-name="Path 1699" d="M217.745,160.3c35.238-3.747,32.89-10.25,62.949-20.638,24.278-8.389,23.473-53.563-18.549-54.627-22.21-.563-24.967-9.037-25.115-9.793a42.755,42.755,0,1,0-47.745,50.573c.107.754.231,1.51.379,2.266a42.725,42.725,0,0,0,28.08,32.219" transform="translate(1.277 0.341)" fill="#ef8957"></path>
          <path id="Path_1700" data-name="Path 1700" d="M300.893,104.463a1.01,1.01,0,0,1-.93-.617c-9.011-21.4-19.822-24.8-33.269-23.307-23.62,2.612-27.015-7.117-27.146-7.534a41.747,41.747,0,0,0-52.456-27.091,1.008,1.008,0,0,1-.613-1.921,43.763,43.763,0,0,1,54.99,28.4c.027.086,3.064,8.57,25,6.142,19.847-2.191,28.483,8.218,35.351,24.528a1.009,1.009,0,0,1-.539,1.321.991.991,0,0,1-.391.08" transform="translate(1.558 0.351)" fill="#080717"></path>
          <path id="Path_1701" data-name="Path 1701" d="M253.123,199.265l-27.6-71.636a23.8,23.8,0,0,0-20.932-15.21l-15.439-.833a41.986,41.986,0,0,0-25.21,23.435l-.245.582-39.519,89.118H234.7a19.4,19.4,0,0,0,18.427-25.456" transform="translate(1.041 0.936)" fill="#e85836"></path>
          <path id="Path_1702" data-name="Path 1702" d="M234.705,225.737H124.183a1.009,1.009,0,0,1-.922-1.417L162.78,135.2l.238-.565a43.025,43.025,0,0,1,25.814-24,1,1,0,0,1,.378-.051l15.44.832a24.848,24.848,0,0,1,21.818,15.856l27.6,71.635c.006.016.011.032.017.047a20.407,20.407,0,0,1-19.384,26.78m-108.972-2.017H234.705a18.388,18.388,0,0,0,17.475-24.108L224.586,128a22.826,22.826,0,0,0-20.045-14.567l-15.245-.822a41.008,41.008,0,0,0-24.421,22.81l-.244.581Z" transform="translate(1.033 0.927)"></path>
          <path id="Path_1703" data-name="Path 1703" d="M142.075,223.171h28.42s2.273-8.068,0-12.506S156.1,199.772,148.137,203s-6.062,20.171-6.062,20.171" transform="translate(1.19 1.695)" fill="#d7ebfa"></path>
          <path id="Path_1704" data-name="Path 1704" d="M170.5,224.188h-28.42a1.008,1.008,0,0,1-1-.9c-.081-.722-1.881-17.743,6.686-21.217,5.127-2.078,11.017-.29,14.072.959,4.453,1.824,8.3,4.709,9.562,7.181,2.426,4.735.17,12.894.074,13.239a1.008,1.008,0,0,1-.97.735m-27.494-2.017h26.706c.472-2.025,1.576-7.744-.11-11.038-2.085-4.07-13.641-10.206-21.081-7.19-6.17,2.5-5.758,14.786-5.515,18.228" transform="translate(1.181 1.686)"></path>
          <path id="Path_1705" data-name="Path 1705" d="M73.852,224.62H176.473v-1.134a6.959,6.959,0,0,0-6.959-6.959H73.852Z" transform="translate(0.619 1.815)" fill="#c10230"></path>
          <path id="Path_1706" data-name="Path 1706" d="M114.289,225.169H20.978L.475,163.193a9.251,9.251,0,0,1,8.783-12.157H83.08a9.253,9.253,0,0,1,8.783,6.346Z" transform="translate(0 1.266)" fill="#c10230"></path>
          <path id="Path_1707" data-name="Path 1707" d="M169.66,209.355a1.009,1.009,0,0,1-.269-1.98l47.757-13.253-14.877-50.111a1.009,1.009,0,0,1,1.934-.575l15.168,51.095a1.008,1.008,0,0,1-.7,1.258l-48.745,13.528a1,1,0,0,1-.27.037" transform="translate(1.414 1.197)"></path>
          <path id="Path_1708" data-name="Path 1708" d="M173.649,207.669a.93.93,0,0,1-.118-.007,1.008,1.008,0,0,1-.884-1.119l1.93-16.452-2.129-1.23a20.05,20.05,0,0,1-10.021-18.284l.94-21.5a1.008,1.008,0,1,1,2.015.088l-.94,21.5a18.037,18.037,0,0,0,9.017,16.45l2.7,1.562a1.009,1.009,0,0,1,.5.991l-2.007,17.111a1.009,1.009,0,0,1-1,.89" transform="translate(1.362 1.242)"></path>
          <path id="Path_1709" data-name="Path 1709" d="M131.963,195.711l-2.691-.283a22.864,22.864,0,0,0-6.87.318l-11.078,2.216a3.043,3.043,0,0,0-1.769,4.9,7.787,7.787,0,0,0,6.052,2.887l13.443-2.266Z" transform="translate(0.913 1.637)" fill="#d7ebfa"></path>
          <path id="Path_1710" data-name="Path 1710" d="M115.614,206.764a8.763,8.763,0,0,1-6.836-3.26,4.053,4.053,0,0,1,2.355-6.521l11.078-2.216a23.828,23.828,0,0,1,7.174-.332l2.692.283a1.009,1.009,0,0,1,.839,1.357L130,203.843a1.009,1.009,0,0,1-.776.641l-13.444,2.266a1.022,1.022,0,0,1-.167.013m11.273-10.444a21.909,21.909,0,0,0-4.28.424l-11.078,2.216a2.035,2.035,0,0,0-1.183,3.275,6.752,6.752,0,0,0,5.186,2.512l12.785-2.155,2.251-6-1.395-.147a21.98,21.98,0,0,0-2.287-.12" transform="translate(0.904 1.629)"></path>
          <path id="Path_1711" data-name="Path 1711" d="M137.1,197l-4.561-1.14a5.761,5.761,0,0,0-5.518,1.565L115.14,209.6a3.043,3.043,0,0,0,1.45,5,7.786,7.786,0,0,0,6.593-1.223l8.411-9.9Z" transform="translate(0.959 1.641)" fill="#d7ebfa"></path>
          <path id="Path_1712" data-name="Path 1712" d="M118.625,215.888a8.84,8.84,0,0,1-2.288-.3,4.049,4.049,0,0,1-1.93-6.658l11.9-12.193a6.785,6.785,0,0,1,6.484-1.839l4.562,1.14a1.008,1.008,0,0,1,.523,1.632l-13.916,16.375a.958.958,0,0,1-.174.163,8.757,8.757,0,0,1-5.159,1.684m12.53-19.178a4.769,4.769,0,0,0-3.407,1.432L115.87,210.314a2.035,2.035,0,0,0,.988,3.324,6.753,6.753,0,0,0,5.645-1L135.287,197.6l-2.986-.746a4.719,4.719,0,0,0-1.146-.141" transform="translate(0.95 1.632)"></path>
          <path id="Path_1713" data-name="Path 1713" d="M148.175,199.423l-7.313-2.6a5.756,5.756,0,0,0-5.518,1.565l-9.288,11.2a3.043,3.043,0,0,0,1.449,5,7.783,7.783,0,0,0,6.592-1.223l7.926-8.283Z" transform="translate(1.05 1.649)" fill="#d7ebfa"></path>
          <path id="Path_1714" data-name="Path 1714" d="M129.54,215.879a8.846,8.846,0,0,1-2.289-.3,4.051,4.051,0,0,1-1.93-6.658l9.255-11.162a6.81,6.81,0,0,1,6.537-1.9l7.407,2.625a1.009,1.009,0,0,1,.346,1.692l-6.151,5.665-7.881,8.238a.957.957,0,0,1-.136.119,8.755,8.755,0,0,1-5.158,1.683m9.946-18.219a4.808,4.808,0,0,0-3.412,1.445l-9.235,11.14a2.051,2.051,0,0,0-.492,1.987,2.016,2.016,0,0,0,1.427,1.4,6.752,6.752,0,0,0,5.668-1.012L141.3,204.4l4.967-4.576-5.739-2.038a4.344,4.344,0,0,0-1.046-.126" transform="translate(1.042 1.64)"></path>
          <path id="Path_1715" data-name="Path 1715" d="M163.147,204.741l-14.289-5.16a5.162,5.162,0,0,0-4.948,1.4l-8.328,10.044a2.729,2.729,0,0,0,1.3,4.485,6.981,6.981,0,0,0,5.911-1.1l5.139-6.116Z" transform="translate(1.131 1.672)" fill="#d7ebfa"></path>
          <path id="Path_1716" data-name="Path 1716" d="M138.708,216.771a8.016,8.016,0,0,1-2.08-.275,3.736,3.736,0,0,1-1.78-6.142l8.294-10a6.22,6.22,0,0,1,5.969-1.737,1.016,1.016,0,0,1,.1.029L163.5,203.8a1.008,1.008,0,1,1-.686,1.9l-14.236-5.142a4.172,4.172,0,0,0-3.935,1.142l-8.275,9.983a1.723,1.723,0,0,0,.785,2.867,5.953,5.953,0,0,0,4.961-.868l5.057-6.018a1.008,1.008,0,1,1,1.544,1.3l-5.14,6.116a1,1,0,0,1-.179.166,7.958,7.958,0,0,1-4.685,1.53" transform="translate(1.122 1.664)"></path>
          <path id="Path_1717" data-name="Path 1717" d="M57.353,189.284a6.572,6.572,0,1,1-6.572-6.572,6.572,6.572,0,0,1,6.572,6.572" transform="translate(0.371 1.532)" fill="#fff"></path>
          <path id="Path_1718" data-name="Path 1718" d="M50.79,196.872a7.58,7.58,0,1,1,7.581-7.58,7.588,7.588,0,0,1-7.581,7.58m0-13.143a5.563,5.563,0,1,0,5.564,5.563,5.57,5.57,0,0,0-5.564-5.563" transform="translate(0.362 1.523)" fill="#c10230"></path>
          <path id="Path_1719" data-name="Path 1719" d="M181.566,107.363a.917.917,0,0,1-.175-1.817l14.331-2.806a27.065,27.065,0,0,0,7.983-2.916.917.917,0,1,1,.892,1.6,28.885,28.885,0,0,1-8.523,3.115l-14.331,2.805a.889.889,0,0,1-.177.017" transform="translate(1.515 0.836)" fill="#080717"></path>
          <path id="Path_1720" data-name="Path 1720" d="M191.967,40.8A42.747,42.747,0,0,1,236.4,73.726a29.471,29.471,0,0,1-15.1,7.933c-15.5,3.034-30.4-6.46-33.29-21.206A26.406,26.406,0,0,1,191.967,40.8" transform="translate(1.572 0.341)" fill="#ef8957"></path>
          <path id="Path_1721" data-name="Path 1721" d="M173.028,109.034l9.984,22.595s10.863,1.083,23.589-14.282c.5-.6-26.742-39.784-26.742-39.784L161.668,66.457Z" transform="translate(1.355 0.557)" fill="#d7ebfa"></path>
          <path id="Path_1722" data-name="Path 1722" d="M183.545,132.665c-.355,0-.568-.019-.624-.024a1.01,1.01,0,0,1-.823-.6l-9.983-22.595a.941.941,0,0,1-.051-.147L160.7,66.725a1.008,1.008,0,0,1,1.5-1.12l18.191,11.106a1,1,0,0,1,.3.285c.069.1,6.89,9.91,13.564,19.673,13.925,20.367,13.788,20.534,13.128,21.33-11.351,13.7-21.282,14.666-23.842,14.666m-9.553-23.958,9.691,21.933c2.3-.065,11.366-1.151,21.767-13.468-1.937-3.545-16.452-24.7-26.289-38.851L163.3,68.637Z" transform="translate(1.347 0.549)"></path>
          <path id="Path_1723" data-name="Path 1723" d="M162.307,62.574s-11.468,29.113-11.028,36.171,0,18.968,31.76,8.381Z" transform="translate(1.268 0.525)" fill="#d7ebfa"></path>
          <path id="Path_1724" data-name="Path 1724" d="M163.01,112.337c-3.544,0-6.3-.68-8.3-2.037-3.928-2.665-4.195-7.347-4.389-10.765l-.042-.718c-.449-7.2,10.624-35.406,11.1-36.6a1.008,1.008,0,0,1,1.877.739c-.114.288-11.382,28.984-10.96,35.738l.043.729c.189,3.331.4,7.106,3.509,9.212,4.268,2.9,13.314,2.069,26.883-2.453a1.009,1.009,0,0,1,.638,1.914c-8.5,2.833-15.25,4.244-20.356,4.245" transform="translate(1.26 0.516)"></path>
          <path id="Path_1725" data-name="Path 1725" d="M210.492,81.679c.1-.622.2-1.216.279-1.774,1.323-9.263-3.088-11.91-3.088-11.91a216.607,216.607,0,0,1-22.055-11.469c-13.675-7.939-29.114-15.879-27.349.442s30.437,29.554,30.437,29.554S187,88.389,184.4,91.529a52.686,52.686,0,0,0,26.091-9.85" transform="translate(1.326 0.398)" fill="#ef8957"></path>
          <path id="Path_1726" data-name="Path 1726" d="M168.714,85.551c.678-1.7.369-3.424-.689-3.846s-2.466.618-3.143,2.321-.369,3.424.689,3.846,2.465-.618,3.143-2.321" transform="translate(1.379 0.684)"></path>
          <path id="Path_1727" data-name="Path 1727" d="M158.321,82.871c.678-1.7.369-3.424-.689-3.846s-2.465.618-3.143,2.321-.369,3.424.689,3.846,2.465-.618,3.143-2.321" transform="translate(1.292 0.662)"></path>
          <path id="Path_1728" data-name="Path 1728" d="M165.631,101.736a5.528,5.528,0,0,1-1.474-.207,1.008,1.008,0,0,1,.533-1.945c3.653,1.005,5.286-4.166,5.354-4.386a1.008,1.008,0,0,1,1.928.591c-.679,2.223-2.805,5.947-6.341,5.947" transform="translate(1.37 0.792)"></path>
          <path id="Path_1729" data-name="Path 1729" d="M160.275,93.147a1.055,1.055,0,0,1-.193-.018,6.841,6.841,0,0,1-3.938-2.323,1.01,1.01,0,0,1-.043-1.237c.754-1.046,2.746-3.984,4.026-6.12.043-.067,1.255-1.893.667-3.43-.392-1.021-1.538-1.776-3.4-2.242a1.009,1.009,0,0,1,.488-1.957c2.549.638,4.166,1.812,4.8,3.492.958,2.527-.784,5.116-.858,5.224-1,1.675-2.588,4.066-3.6,5.518a4.882,4.882,0,0,0,2.238,1.094,1.009,1.009,0,0,1-.191,2" transform="translate(1.307 0.635)" fill="#080717"></path>
          <path id="Path_1730" data-name="Path 1730" d="M228.081,104.6c-32.642,10.145-25.143-10.145-25.143-10.145s-7.058,7.058-13.233,6.175c0,0-10.587,11.469-.882,18.968s33.023,3.762,47.262.343a64.119,64.119,0,0,1,19.836-1.676,72.935,72.935,0,0,0,1.585-13.829c-8.21-2.747-18.044-3.373-29.425.164" transform="translate(1.549 0.792)" fill="#ef8957"></path>
          <path id="Path_1731" data-name="Path 1731" d="M183.261,88.931a7.94,7.94,0,1,1,3.2,10.764Z" transform="translate(1.536 0.711)" fill="#d7ebfa"></path>
          <path id="Path_1732" data-name="Path 1732" d="M190.235,101.67a8.9,8.9,0,0,1-4.249-1.08,1.008,1.008,0,0,1,.961-1.773,6.932,6.932,0,1,0-2.79-9.4,1.008,1.008,0,0,1-1.773-.961,8.948,8.948,0,1,1,7.851,13.211" transform="translate(1.528 0.702)"></path>
          <path id="Path_1733" data-name="Path 1733" d="M45.791,56.981a6.036,6.036,0,1,1-6.036-6.036,6.036,6.036,0,0,1,6.036,6.036" transform="translate(0.283 0.427)" fill="#fff"></path>
          <path id="Path_1734" data-name="Path 1734" d="M68.255,56.981a6.036,6.036,0,1,1-6.036-6.036,6.036,6.036,0,0,1,6.036,6.036" transform="translate(0.471 0.427)" fill="#fff"></path>
          <path id="Path_1735" data-name="Path 1735" d="M90.72,56.981a6.036,6.036,0,1,1-6.036-6.036,6.036,6.036,0,0,1,6.036,6.036" transform="translate(0.659 0.427)" fill="#fff"></path>
        </g>
        <rect id="Rectangle_1235" data-name="Rectangle 1235" width="8" height="6" transform="translate(186.744 41.664)" fill="#ef8957"></rect>
        <rect id="Rectangle_1236" data-name="Rectangle 1236" width="10" height="5" transform="translate(200.744 100.664)" fill="#ef8957"></rect>
      </g>
    </g>
  </g>
</svg>
